<svg width="1160.1mm" height="871.32mm" version="1.1" viewBox="0 0 1160.1 871.32" xmlns="http://www.w3.org/2000/svg"><g transform="translate(692.68 570.31)"><rect x="-112.64" y="-567.81" width="288.77" height="288.77" fill="none" stroke="#000" stroke-linecap="square" stroke-width="5"/><rect x="-401.41" y="-279.04" width="288.77" height="288.77" fill="none" stroke="#000" stroke-linecap="square" stroke-width="5"/><rect x="-112.64" y="-279.04" width="288.77" height="288.77" fill="none" stroke="#000" stroke-linecap="square" stroke-width="5"/><rect x="-112.64" y="9.7381" width="288.77" height="288.77" fill="none" stroke="#000" stroke-linecap="square" stroke-width="5"/><rect x="-690.18" y="-279.04" width="288.77" height="288.77" fill="none" stroke="#000" stroke-linecap="square" stroke-width="5"/><rect x="176.14" y="-279.04" width="288.77" height="288.77" fill="none" stroke="#000" stroke-linecap="square" stroke-width="5"/><circle cx="31.75" cy="-134.65" r="28.174"/><g transform="rotate(45 -339.66 -205.39)"><circle cx="-333.17" cy="-213.8" r="28.174"/><circle cx="-231.21" cy="-213.8" r="28.174"/><circle cx="-129.24" cy="-213.8" r="28.174"/></g><g transform="translate(1.6947 39.913)"><circle cx="-629" cy="-220.51" r="28.174"/><circle cx="-547.49" cy="-220.51" r="28.174"/><circle cx="-465.99" cy="-220.51" r="28.174"/><circle cx="-629" cy="-128.61" r="28.174"/><circle cx="-547.49" cy="-128.61" r="28.174"/><circle cx="-465.99" cy="-128.61" r="28.174"/></g><g transform="rotate(45 -543.86 287.58)"><circle cx="-333.17" cy="-213.8" r="28.174"/><circle cx="-129.24" cy="-213.8" r="28.174"/></g><g><circle transform="rotate(45)" cx="29.471" cy="-321.86" r="28.174"/><circle transform="rotate(45)" cx="233.4" cy="-321.86" r="28.174"/><circle transform="rotate(-45)" cx="219.89" cy="131.43" r="28.174"/><circle transform="rotate(-45)" cx="423.82" cy="131.43" r="28.174"/></g><g><circle transform="rotate(45)" cx="-378.92" cy="-321.86" r="28.174"/><circle transform="rotate(45)" cx="-174.99" cy="-321.86" r="28.174"/><circle transform="rotate(-45)" cx="219.89" cy="-276.95" r="28.174"/><circle transform="rotate(-45)" cx="423.82" cy="-276.95" r="28.174"/><circle transform="rotate(45)" cx="-276.95" cy="-321.86" r="28.174"/></g></g></svg>
