<?xml version="1.0" encoding="UTF-8"?>
<svg version="1.1" baseProfile="tiny" xmlns="http://www.w3.org/2000/svg" width="200" height="200">
<rect shape-rendering="optimizeSpeed"  x="0" y="0" width="200" height="200" fill="white" />
<rect shape-rendering="optimizeSpeed"  x="0" y="0" width="8" height="8" fill="black" />
<rect shape-rendering="optimizeSpeed"  x="8" y="0" width="8" height="8" fill="black" />
<rect shape-rendering="optimizeSpeed"  x="16" y="0" width="8" height="8" fill="black" />
<rect shape-rendering="optimizeSpeed"  x="24" y="0" width="8" height="8" fill="black" />
<rect shape-rendering="optimizeSpeed"  x="32" y="0" width="8" height="8" fill="black" />
<rect shape-rendering="optimizeSpeed"  x="40" y="0" width="8" height="8" fill="black" />
<rect shape-rendering="optimizeSpeed"  x="48" y="0" width="8" height="8" fill="black" />
<rect shape-rendering="optimizeSpeed"  x="64" y="0" width="8" height="8" fill="black" />
<rect shape-rendering="optimizeSpeed"  x="72" y="0" width="8" height="8" fill="black" />
<rect shape-rendering="optimizeSpeed"  x="128" y="0" width="8" height="8" fill="black" />
<rect shape-rendering="optimizeSpeed"  x="144" y="0" width="8" height="8" fill="black" />
<rect shape-rendering="optimizeSpeed"  x="152" y="0" width="8" height="8" fill="black" />
<rect shape-rendering="optimizeSpeed"  x="160" y="0" width="8" height="8" fill="black" />
<rect shape-rendering="optimizeSpeed"  x="168" y="0" width="8" height="8" fill="black" />
<rect shape-rendering="optimizeSpeed"  x="176" y="0" width="8" height="8" fill="black" />
<rect shape-rendering="optimizeSpeed"  x="184" y="0" width="8" height="8" fill="black" />
<rect shape-rendering="optimizeSpeed"  x="192" y="0" width="8" height="8" fill="black" />
<rect shape-rendering="optimizeSpeed"  x="0" y="8" width="8" height="8" fill="black" />
<rect shape-rendering="optimizeSpeed"  x="48" y="8" width="8" height="8" fill="black" />
<rect shape-rendering="optimizeSpeed"  x="104" y="8" width="8" height="8" fill="black" />
<rect shape-rendering="optimizeSpeed"  x="144" y="8" width="8" height="8" fill="black" />
<rect shape-rendering="optimizeSpeed"  x="192" y="8" width="8" height="8" fill="black" />
<rect shape-rendering="optimizeSpeed"  x="0" y="16" width="8" height="8" fill="black" />
<rect shape-rendering="optimizeSpeed"  x="16" y="16" width="8" height="8" fill="black" />
<rect shape-rendering="optimizeSpeed"  x="24" y="16" width="8" height="8" fill="black" />
<rect shape-rendering="optimizeSpeed"  x="32" y="16" width="8" height="8" fill="black" />
<rect shape-rendering="optimizeSpeed"  x="48" y="16" width="8" height="8" fill="black" />
<rect shape-rendering="optimizeSpeed"  x="64" y="16" width="8" height="8" fill="black" />
<rect shape-rendering="optimizeSpeed"  x="88" y="16" width="8" height="8" fill="black" />
<rect shape-rendering="optimizeSpeed"  x="96" y="16" width="8" height="8" fill="black" />
<rect shape-rendering="optimizeSpeed"  x="104" y="16" width="8" height="8" fill="black" />
<rect shape-rendering="optimizeSpeed"  x="112" y="16" width="8" height="8" fill="black" />
<rect shape-rendering="optimizeSpeed"  x="120" y="16" width="8" height="8" fill="black" />
<rect shape-rendering="optimizeSpeed"  x="144" y="16" width="8" height="8" fill="black" />
<rect shape-rendering="optimizeSpeed"  x="160" y="16" width="8" height="8" fill="black" />
<rect shape-rendering="optimizeSpeed"  x="168" y="16" width="8" height="8" fill="black" />
<rect shape-rendering="optimizeSpeed"  x="176" y="16" width="8" height="8" fill="black" />
<rect shape-rendering="optimizeSpeed"  x="192" y="16" width="8" height="8" fill="black" />
<rect shape-rendering="optimizeSpeed"  x="0" y="24" width="8" height="8" fill="black" />
<rect shape-rendering="optimizeSpeed"  x="16" y="24" width="8" height="8" fill="black" />
<rect shape-rendering="optimizeSpeed"  x="24" y="24" width="8" height="8" fill="black" />
<rect shape-rendering="optimizeSpeed"  x="32" y="24" width="8" height="8" fill="black" />
<rect shape-rendering="optimizeSpeed"  x="48" y="24" width="8" height="8" fill="black" />
<rect shape-rendering="optimizeSpeed"  x="64" y="24" width="8" height="8" fill="black" />
<rect shape-rendering="optimizeSpeed"  x="72" y="24" width="8" height="8" fill="black" />
<rect shape-rendering="optimizeSpeed"  x="88" y="24" width="8" height="8" fill="black" />
<rect shape-rendering="optimizeSpeed"  x="104" y="24" width="8" height="8" fill="black" />
<rect shape-rendering="optimizeSpeed"  x="112" y="24" width="8" height="8" fill="black" />
<rect shape-rendering="optimizeSpeed"  x="144" y="24" width="8" height="8" fill="black" />
<rect shape-rendering="optimizeSpeed"  x="160" y="24" width="8" height="8" fill="black" />
<rect shape-rendering="optimizeSpeed"  x="168" y="24" width="8" height="8" fill="black" />
<rect shape-rendering="optimizeSpeed"  x="176" y="24" width="8" height="8" fill="black" />
<rect shape-rendering="optimizeSpeed"  x="192" y="24" width="8" height="8" fill="black" />
<rect shape-rendering="optimizeSpeed"  x="0" y="32" width="8" height="8" fill="black" />
<rect shape-rendering="optimizeSpeed"  x="16" y="32" width="8" height="8" fill="black" />
<rect shape-rendering="optimizeSpeed"  x="24" y="32" width="8" height="8" fill="black" />
<rect shape-rendering="optimizeSpeed"  x="32" y="32" width="8" height="8" fill="black" />
<rect shape-rendering="optimizeSpeed"  x="48" y="32" width="8" height="8" fill="black" />
<rect shape-rendering="optimizeSpeed"  x="64" y="32" width="8" height="8" fill="black" />
<rect shape-rendering="optimizeSpeed"  x="72" y="32" width="8" height="8" fill="black" />
<rect shape-rendering="optimizeSpeed"  x="80" y="32" width="8" height="8" fill="black" />
<rect shape-rendering="optimizeSpeed"  x="88" y="32" width="8" height="8" fill="black" />
<rect shape-rendering="optimizeSpeed"  x="112" y="32" width="8" height="8" fill="black" />
<rect shape-rendering="optimizeSpeed"  x="120" y="32" width="8" height="8" fill="black" />
<rect shape-rendering="optimizeSpeed"  x="144" y="32" width="8" height="8" fill="black" />
<rect shape-rendering="optimizeSpeed"  x="160" y="32" width="8" height="8" fill="black" />
<rect shape-rendering="optimizeSpeed"  x="168" y="32" width="8" height="8" fill="black" />
<rect shape-rendering="optimizeSpeed"  x="176" y="32" width="8" height="8" fill="black" />
<rect shape-rendering="optimizeSpeed"  x="192" y="32" width="8" height="8" fill="black" />
<rect shape-rendering="optimizeSpeed"  x="0" y="40" width="8" height="8" fill="black" />
<rect shape-rendering="optimizeSpeed"  x="48" y="40" width="8" height="8" fill="black" />
<rect shape-rendering="optimizeSpeed"  x="72" y="40" width="8" height="8" fill="black" />
<rect shape-rendering="optimizeSpeed"  x="96" y="40" width="8" height="8" fill="black" />
<rect shape-rendering="optimizeSpeed"  x="104" y="40" width="8" height="8" fill="black" />
<rect shape-rendering="optimizeSpeed"  x="128" y="40" width="8" height="8" fill="black" />
<rect shape-rendering="optimizeSpeed"  x="144" y="40" width="8" height="8" fill="black" />
<rect shape-rendering="optimizeSpeed"  x="192" y="40" width="8" height="8" fill="black" />
<rect shape-rendering="optimizeSpeed"  x="0" y="48" width="8" height="8" fill="black" />
<rect shape-rendering="optimizeSpeed"  x="8" y="48" width="8" height="8" fill="black" />
<rect shape-rendering="optimizeSpeed"  x="16" y="48" width="8" height="8" fill="black" />
<rect shape-rendering="optimizeSpeed"  x="24" y="48" width="8" height="8" fill="black" />
<rect shape-rendering="optimizeSpeed"  x="32" y="48" width="8" height="8" fill="black" />
<rect shape-rendering="optimizeSpeed"  x="40" y="48" width="8" height="8" fill="black" />
<rect shape-rendering="optimizeSpeed"  x="48" y="48" width="8" height="8" fill="black" />
<rect shape-rendering="optimizeSpeed"  x="64" y="48" width="8" height="8" fill="black" />
<rect shape-rendering="optimizeSpeed"  x="80" y="48" width="8" height="8" fill="black" />
<rect shape-rendering="optimizeSpeed"  x="96" y="48" width="8" height="8" fill="black" />
<rect shape-rendering="optimizeSpeed"  x="112" y="48" width="8" height="8" fill="black" />
<rect shape-rendering="optimizeSpeed"  x="128" y="48" width="8" height="8" fill="black" />
<rect shape-rendering="optimizeSpeed"  x="144" y="48" width="8" height="8" fill="black" />
<rect shape-rendering="optimizeSpeed"  x="152" y="48" width="8" height="8" fill="black" />
<rect shape-rendering="optimizeSpeed"  x="160" y="48" width="8" height="8" fill="black" />
<rect shape-rendering="optimizeSpeed"  x="168" y="48" width="8" height="8" fill="black" />
<rect shape-rendering="optimizeSpeed"  x="176" y="48" width="8" height="8" fill="black" />
<rect shape-rendering="optimizeSpeed"  x="184" y="48" width="8" height="8" fill="black" />
<rect shape-rendering="optimizeSpeed"  x="192" y="48" width="8" height="8" fill="black" />
<rect shape-rendering="optimizeSpeed"  x="72" y="56" width="8" height="8" fill="black" />
<rect shape-rendering="optimizeSpeed"  x="88" y="56" width="8" height="8" fill="black" />
<rect shape-rendering="optimizeSpeed"  x="128" y="56" width="8" height="8" fill="black" />
<rect shape-rendering="optimizeSpeed"  x="0" y="64" width="8" height="8" fill="black" />
<rect shape-rendering="optimizeSpeed"  x="8" y="64" width="8" height="8" fill="black" />
<rect shape-rendering="optimizeSpeed"  x="16" y="64" width="8" height="8" fill="black" />
<rect shape-rendering="optimizeSpeed"  x="24" y="64" width="8" height="8" fill="black" />
<rect shape-rendering="optimizeSpeed"  x="48" y="64" width="8" height="8" fill="black" />
<rect shape-rendering="optimizeSpeed"  x="64" y="64" width="8" height="8" fill="black" />
<rect shape-rendering="optimizeSpeed"  x="112" y="64" width="8" height="8" fill="black" />
<rect shape-rendering="optimizeSpeed"  x="120" y="64" width="8" height="8" fill="black" />
<rect shape-rendering="optimizeSpeed"  x="128" y="64" width="8" height="8" fill="black" />
<rect shape-rendering="optimizeSpeed"  x="136" y="64" width="8" height="8" fill="black" />
<rect shape-rendering="optimizeSpeed"  x="160" y="64" width="8" height="8" fill="black" />
<rect shape-rendering="optimizeSpeed"  x="168" y="64" width="8" height="8" fill="black" />
<rect shape-rendering="optimizeSpeed"  x="176" y="64" width="8" height="8" fill="black" />
<rect shape-rendering="optimizeSpeed"  x="192" y="64" width="8" height="8" fill="black" />
<rect shape-rendering="optimizeSpeed"  x="0" y="72" width="8" height="8" fill="black" />
<rect shape-rendering="optimizeSpeed"  x="16" y="72" width="8" height="8" fill="black" />
<rect shape-rendering="optimizeSpeed"  x="40" y="72" width="8" height="8" fill="black" />
<rect shape-rendering="optimizeSpeed"  x="64" y="72" width="8" height="8" fill="black" />
<rect shape-rendering="optimizeSpeed"  x="72" y="72" width="8" height="8" fill="black" />
<rect shape-rendering="optimizeSpeed"  x="128" y="72" width="8" height="8" fill="black" />
<rect shape-rendering="optimizeSpeed"  x="152" y="72" width="8" height="8" fill="black" />
<rect shape-rendering="optimizeSpeed"  x="184" y="72" width="8" height="8" fill="black" />
<rect shape-rendering="optimizeSpeed"  x="0" y="80" width="8" height="8" fill="black" />
<rect shape-rendering="optimizeSpeed"  x="16" y="80" width="8" height="8" fill="black" />
<rect shape-rendering="optimizeSpeed"  x="32" y="80" width="8" height="8" fill="black" />
<rect shape-rendering="optimizeSpeed"  x="40" y="80" width="8" height="8" fill="black" />
<rect shape-rendering="optimizeSpeed"  x="48" y="80" width="8" height="8" fill="black" />
<rect shape-rendering="optimizeSpeed"  x="56" y="80" width="8" height="8" fill="black" />
<rect shape-rendering="optimizeSpeed"  x="104" y="80" width="8" height="8" fill="black" />
<rect shape-rendering="optimizeSpeed"  x="112" y="80" width="8" height="8" fill="black" />
<rect shape-rendering="optimizeSpeed"  x="136" y="80" width="8" height="8" fill="black" />
<rect shape-rendering="optimizeSpeed"  x="144" y="80" width="8" height="8" fill="black" />
<rect shape-rendering="optimizeSpeed"  x="160" y="80" width="8" height="8" fill="black" />
<rect shape-rendering="optimizeSpeed"  x="0" y="88" width="8" height="8" fill="black" />
<rect shape-rendering="optimizeSpeed"  x="8" y="88" width="8" height="8" fill="black" />
<rect shape-rendering="optimizeSpeed"  x="24" y="88" width="8" height="8" fill="black" />
<rect shape-rendering="optimizeSpeed"  x="32" y="88" width="8" height="8" fill="black" />
<rect shape-rendering="optimizeSpeed"  x="40" y="88" width="8" height="8" fill="black" />
<rect shape-rendering="optimizeSpeed"  x="56" y="88" width="8" height="8" fill="black" />
<rect shape-rendering="optimizeSpeed"  x="88" y="88" width="8" height="8" fill="black" />
<rect shape-rendering="optimizeSpeed"  x="96" y="88" width="8" height="8" fill="black" />
<rect shape-rendering="optimizeSpeed"  x="104" y="88" width="8" height="8" fill="black" />
<rect shape-rendering="optimizeSpeed"  x="136" y="88" width="8" height="8" fill="black" />
<rect shape-rendering="optimizeSpeed"  x="168" y="88" width="8" height="8" fill="black" />
<rect shape-rendering="optimizeSpeed"  x="176" y="88" width="8" height="8" fill="black" />
<rect shape-rendering="optimizeSpeed"  x="0" y="96" width="8" height="8" fill="black" />
<rect shape-rendering="optimizeSpeed"  x="24" y="96" width="8" height="8" fill="black" />
<rect shape-rendering="optimizeSpeed"  x="32" y="96" width="8" height="8" fill="black" />
<rect shape-rendering="optimizeSpeed"  x="48" y="96" width="8" height="8" fill="black" />
<rect shape-rendering="optimizeSpeed"  x="56" y="96" width="8" height="8" fill="black" />
<rect shape-rendering="optimizeSpeed"  x="72" y="96" width="8" height="8" fill="black" />
<rect shape-rendering="optimizeSpeed"  x="88" y="96" width="8" height="8" fill="black" />
<rect shape-rendering="optimizeSpeed"  x="96" y="96" width="8" height="8" fill="black" />
<rect shape-rendering="optimizeSpeed"  x="104" y="96" width="8" height="8" fill="black" />
<rect shape-rendering="optimizeSpeed"  x="112" y="96" width="8" height="8" fill="black" />
<rect shape-rendering="optimizeSpeed"  x="136" y="96" width="8" height="8" fill="black" />
<rect shape-rendering="optimizeSpeed"  x="144" y="96" width="8" height="8" fill="black" />
<rect shape-rendering="optimizeSpeed"  x="160" y="96" width="8" height="8" fill="black" />
<rect shape-rendering="optimizeSpeed"  x="176" y="96" width="8" height="8" fill="black" />
<rect shape-rendering="optimizeSpeed"  x="184" y="96" width="8" height="8" fill="black" />
<rect shape-rendering="optimizeSpeed"  x="192" y="96" width="8" height="8" fill="black" />
<rect shape-rendering="optimizeSpeed"  x="24" y="104" width="8" height="8" fill="black" />
<rect shape-rendering="optimizeSpeed"  x="32" y="104" width="8" height="8" fill="black" />
<rect shape-rendering="optimizeSpeed"  x="40" y="104" width="8" height="8" fill="black" />
<rect shape-rendering="optimizeSpeed"  x="56" y="104" width="8" height="8" fill="black" />
<rect shape-rendering="optimizeSpeed"  x="64" y="104" width="8" height="8" fill="black" />
<rect shape-rendering="optimizeSpeed"  x="72" y="104" width="8" height="8" fill="black" />
<rect shape-rendering="optimizeSpeed"  x="80" y="104" width="8" height="8" fill="black" />
<rect shape-rendering="optimizeSpeed"  x="88" y="104" width="8" height="8" fill="black" />
<rect shape-rendering="optimizeSpeed"  x="104" y="104" width="8" height="8" fill="black" />
<rect shape-rendering="optimizeSpeed"  x="120" y="104" width="8" height="8" fill="black" />
<rect shape-rendering="optimizeSpeed"  x="128" y="104" width="8" height="8" fill="black" />
<rect shape-rendering="optimizeSpeed"  x="136" y="104" width="8" height="8" fill="black" />
<rect shape-rendering="optimizeSpeed"  x="144" y="104" width="8" height="8" fill="black" />
<rect shape-rendering="optimizeSpeed"  x="152" y="104" width="8" height="8" fill="black" />
<rect shape-rendering="optimizeSpeed"  x="160" y="104" width="8" height="8" fill="black" />
<rect shape-rendering="optimizeSpeed"  x="192" y="104" width="8" height="8" fill="black" />
<rect shape-rendering="optimizeSpeed"  x="8" y="112" width="8" height="8" fill="black" />
<rect shape-rendering="optimizeSpeed"  x="48" y="112" width="8" height="8" fill="black" />
<rect shape-rendering="optimizeSpeed"  x="56" y="112" width="8" height="8" fill="black" />
<rect shape-rendering="optimizeSpeed"  x="64" y="112" width="8" height="8" fill="black" />
<rect shape-rendering="optimizeSpeed"  x="80" y="112" width="8" height="8" fill="black" />
<rect shape-rendering="optimizeSpeed"  x="96" y="112" width="8" height="8" fill="black" />
<rect shape-rendering="optimizeSpeed"  x="104" y="112" width="8" height="8" fill="black" />
<rect shape-rendering="optimizeSpeed"  x="160" y="112" width="8" height="8" fill="black" />
<rect shape-rendering="optimizeSpeed"  x="176" y="112" width="8" height="8" fill="black" />
<rect shape-rendering="optimizeSpeed"  x="184" y="112" width="8" height="8" fill="black" />
<rect shape-rendering="optimizeSpeed"  x="0" y="120" width="8" height="8" fill="black" />
<rect shape-rendering="optimizeSpeed"  x="16" y="120" width="8" height="8" fill="black" />
<rect shape-rendering="optimizeSpeed"  x="32" y="120" width="8" height="8" fill="black" />
<rect shape-rendering="optimizeSpeed"  x="56" y="120" width="8" height="8" fill="black" />
<rect shape-rendering="optimizeSpeed"  x="88" y="120" width="8" height="8" fill="black" />
<rect shape-rendering="optimizeSpeed"  x="112" y="120" width="8" height="8" fill="black" />
<rect shape-rendering="optimizeSpeed"  x="128" y="120" width="8" height="8" fill="black" />
<rect shape-rendering="optimizeSpeed"  x="136" y="120" width="8" height="8" fill="black" />
<rect shape-rendering="optimizeSpeed"  x="152" y="120" width="8" height="8" fill="black" />
<rect shape-rendering="optimizeSpeed"  x="160" y="120" width="8" height="8" fill="black" />
<rect shape-rendering="optimizeSpeed"  x="192" y="120" width="8" height="8" fill="black" />
<rect shape-rendering="optimizeSpeed"  x="16" y="128" width="8" height="8" fill="black" />
<rect shape-rendering="optimizeSpeed"  x="40" y="128" width="8" height="8" fill="black" />
<rect shape-rendering="optimizeSpeed"  x="48" y="128" width="8" height="8" fill="black" />
<rect shape-rendering="optimizeSpeed"  x="64" y="128" width="8" height="8" fill="black" />
<rect shape-rendering="optimizeSpeed"  x="80" y="128" width="8" height="8" fill="black" />
<rect shape-rendering="optimizeSpeed"  x="104" y="128" width="8" height="8" fill="black" />
<rect shape-rendering="optimizeSpeed"  x="112" y="128" width="8" height="8" fill="black" />
<rect shape-rendering="optimizeSpeed"  x="120" y="128" width="8" height="8" fill="black" />
<rect shape-rendering="optimizeSpeed"  x="128" y="128" width="8" height="8" fill="black" />
<rect shape-rendering="optimizeSpeed"  x="136" y="128" width="8" height="8" fill="black" />
<rect shape-rendering="optimizeSpeed"  x="144" y="128" width="8" height="8" fill="black" />
<rect shape-rendering="optimizeSpeed"  x="152" y="128" width="8" height="8" fill="black" />
<rect shape-rendering="optimizeSpeed"  x="160" y="128" width="8" height="8" fill="black" />
<rect shape-rendering="optimizeSpeed"  x="168" y="128" width="8" height="8" fill="black" />
<rect shape-rendering="optimizeSpeed"  x="176" y="128" width="8" height="8" fill="black" />
<rect shape-rendering="optimizeSpeed"  x="184" y="128" width="8" height="8" fill="black" />
<rect shape-rendering="optimizeSpeed"  x="192" y="128" width="8" height="8" fill="black" />
<rect shape-rendering="optimizeSpeed"  x="64" y="136" width="8" height="8" fill="black" />
<rect shape-rendering="optimizeSpeed"  x="72" y="136" width="8" height="8" fill="black" />
<rect shape-rendering="optimizeSpeed"  x="88" y="136" width="8" height="8" fill="black" />
<rect shape-rendering="optimizeSpeed"  x="128" y="136" width="8" height="8" fill="black" />
<rect shape-rendering="optimizeSpeed"  x="160" y="136" width="8" height="8" fill="black" />
<rect shape-rendering="optimizeSpeed"  x="176" y="136" width="8" height="8" fill="black" />
<rect shape-rendering="optimizeSpeed"  x="192" y="136" width="8" height="8" fill="black" />
<rect shape-rendering="optimizeSpeed"  x="0" y="144" width="8" height="8" fill="black" />
<rect shape-rendering="optimizeSpeed"  x="8" y="144" width="8" height="8" fill="black" />
<rect shape-rendering="optimizeSpeed"  x="16" y="144" width="8" height="8" fill="black" />
<rect shape-rendering="optimizeSpeed"  x="24" y="144" width="8" height="8" fill="black" />
<rect shape-rendering="optimizeSpeed"  x="32" y="144" width="8" height="8" fill="black" />
<rect shape-rendering="optimizeSpeed"  x="40" y="144" width="8" height="8" fill="black" />
<rect shape-rendering="optimizeSpeed"  x="48" y="144" width="8" height="8" fill="black" />
<rect shape-rendering="optimizeSpeed"  x="80" y="144" width="8" height="8" fill="black" />
<rect shape-rendering="optimizeSpeed"  x="96" y="144" width="8" height="8" fill="black" />
<rect shape-rendering="optimizeSpeed"  x="104" y="144" width="8" height="8" fill="black" />
<rect shape-rendering="optimizeSpeed"  x="112" y="144" width="8" height="8" fill="black" />
<rect shape-rendering="optimizeSpeed"  x="128" y="144" width="8" height="8" fill="black" />
<rect shape-rendering="optimizeSpeed"  x="144" y="144" width="8" height="8" fill="black" />
<rect shape-rendering="optimizeSpeed"  x="160" y="144" width="8" height="8" fill="black" />
<rect shape-rendering="optimizeSpeed"  x="176" y="144" width="8" height="8" fill="black" />
<rect shape-rendering="optimizeSpeed"  x="184" y="144" width="8" height="8" fill="black" />
<rect shape-rendering="optimizeSpeed"  x="192" y="144" width="8" height="8" fill="black" />
<rect shape-rendering="optimizeSpeed"  x="0" y="152" width="8" height="8" fill="black" />
<rect shape-rendering="optimizeSpeed"  x="48" y="152" width="8" height="8" fill="black" />
<rect shape-rendering="optimizeSpeed"  x="80" y="152" width="8" height="8" fill="black" />
<rect shape-rendering="optimizeSpeed"  x="96" y="152" width="8" height="8" fill="black" />
<rect shape-rendering="optimizeSpeed"  x="112" y="152" width="8" height="8" fill="black" />
<rect shape-rendering="optimizeSpeed"  x="120" y="152" width="8" height="8" fill="black" />
<rect shape-rendering="optimizeSpeed"  x="128" y="152" width="8" height="8" fill="black" />
<rect shape-rendering="optimizeSpeed"  x="160" y="152" width="8" height="8" fill="black" />
<rect shape-rendering="optimizeSpeed"  x="184" y="152" width="8" height="8" fill="black" />
<rect shape-rendering="optimizeSpeed"  x="192" y="152" width="8" height="8" fill="black" />
<rect shape-rendering="optimizeSpeed"  x="0" y="160" width="8" height="8" fill="black" />
<rect shape-rendering="optimizeSpeed"  x="16" y="160" width="8" height="8" fill="black" />
<rect shape-rendering="optimizeSpeed"  x="24" y="160" width="8" height="8" fill="black" />
<rect shape-rendering="optimizeSpeed"  x="32" y="160" width="8" height="8" fill="black" />
<rect shape-rendering="optimizeSpeed"  x="48" y="160" width="8" height="8" fill="black" />
<rect shape-rendering="optimizeSpeed"  x="72" y="160" width="8" height="8" fill="black" />
<rect shape-rendering="optimizeSpeed"  x="80" y="160" width="8" height="8" fill="black" />
<rect shape-rendering="optimizeSpeed"  x="96" y="160" width="8" height="8" fill="black" />
<rect shape-rendering="optimizeSpeed"  x="112" y="160" width="8" height="8" fill="black" />
<rect shape-rendering="optimizeSpeed"  x="128" y="160" width="8" height="8" fill="black" />
<rect shape-rendering="optimizeSpeed"  x="136" y="160" width="8" height="8" fill="black" />
<rect shape-rendering="optimizeSpeed"  x="144" y="160" width="8" height="8" fill="black" />
<rect shape-rendering="optimizeSpeed"  x="152" y="160" width="8" height="8" fill="black" />
<rect shape-rendering="optimizeSpeed"  x="160" y="160" width="8" height="8" fill="black" />
<rect shape-rendering="optimizeSpeed"  x="168" y="160" width="8" height="8" fill="black" />
<rect shape-rendering="optimizeSpeed"  x="192" y="160" width="8" height="8" fill="black" />
<rect shape-rendering="optimizeSpeed"  x="0" y="168" width="8" height="8" fill="black" />
<rect shape-rendering="optimizeSpeed"  x="16" y="168" width="8" height="8" fill="black" />
<rect shape-rendering="optimizeSpeed"  x="24" y="168" width="8" height="8" fill="black" />
<rect shape-rendering="optimizeSpeed"  x="32" y="168" width="8" height="8" fill="black" />
<rect shape-rendering="optimizeSpeed"  x="48" y="168" width="8" height="8" fill="black" />
<rect shape-rendering="optimizeSpeed"  x="64" y="168" width="8" height="8" fill="black" />
<rect shape-rendering="optimizeSpeed"  x="72" y="168" width="8" height="8" fill="black" />
<rect shape-rendering="optimizeSpeed"  x="88" y="168" width="8" height="8" fill="black" />
<rect shape-rendering="optimizeSpeed"  x="120" y="168" width="8" height="8" fill="black" />
<rect shape-rendering="optimizeSpeed"  x="128" y="168" width="8" height="8" fill="black" />
<rect shape-rendering="optimizeSpeed"  x="136" y="168" width="8" height="8" fill="black" />
<rect shape-rendering="optimizeSpeed"  x="144" y="168" width="8" height="8" fill="black" />
<rect shape-rendering="optimizeSpeed"  x="160" y="168" width="8" height="8" fill="black" />
<rect shape-rendering="optimizeSpeed"  x="168" y="168" width="8" height="8" fill="black" />
<rect shape-rendering="optimizeSpeed"  x="176" y="168" width="8" height="8" fill="black" />
<rect shape-rendering="optimizeSpeed"  x="184" y="168" width="8" height="8" fill="black" />
<rect shape-rendering="optimizeSpeed"  x="192" y="168" width="8" height="8" fill="black" />
<rect shape-rendering="optimizeSpeed"  x="0" y="176" width="8" height="8" fill="black" />
<rect shape-rendering="optimizeSpeed"  x="16" y="176" width="8" height="8" fill="black" />
<rect shape-rendering="optimizeSpeed"  x="24" y="176" width="8" height="8" fill="black" />
<rect shape-rendering="optimizeSpeed"  x="32" y="176" width="8" height="8" fill="black" />
<rect shape-rendering="optimizeSpeed"  x="48" y="176" width="8" height="8" fill="black" />
<rect shape-rendering="optimizeSpeed"  x="64" y="176" width="8" height="8" fill="black" />
<rect shape-rendering="optimizeSpeed"  x="72" y="176" width="8" height="8" fill="black" />
<rect shape-rendering="optimizeSpeed"  x="80" y="176" width="8" height="8" fill="black" />
<rect shape-rendering="optimizeSpeed"  x="88" y="176" width="8" height="8" fill="black" />
<rect shape-rendering="optimizeSpeed"  x="96" y="176" width="8" height="8" fill="black" />
<rect shape-rendering="optimizeSpeed"  x="136" y="176" width="8" height="8" fill="black" />
<rect shape-rendering="optimizeSpeed"  x="144" y="176" width="8" height="8" fill="black" />
<rect shape-rendering="optimizeSpeed"  x="160" y="176" width="8" height="8" fill="black" />
<rect shape-rendering="optimizeSpeed"  x="176" y="176" width="8" height="8" fill="black" />
<rect shape-rendering="optimizeSpeed"  x="184" y="176" width="8" height="8" fill="black" />
<rect shape-rendering="optimizeSpeed"  x="0" y="184" width="8" height="8" fill="black" />
<rect shape-rendering="optimizeSpeed"  x="48" y="184" width="8" height="8" fill="black" />
<rect shape-rendering="optimizeSpeed"  x="64" y="184" width="8" height="8" fill="black" />
<rect shape-rendering="optimizeSpeed"  x="72" y="184" width="8" height="8" fill="black" />
<rect shape-rendering="optimizeSpeed"  x="96" y="184" width="8" height="8" fill="black" />
<rect shape-rendering="optimizeSpeed"  x="104" y="184" width="8" height="8" fill="black" />
<rect shape-rendering="optimizeSpeed"  x="120" y="184" width="8" height="8" fill="black" />
<rect shape-rendering="optimizeSpeed"  x="136" y="184" width="8" height="8" fill="black" />
<rect shape-rendering="optimizeSpeed"  x="160" y="184" width="8" height="8" fill="black" />
<rect shape-rendering="optimizeSpeed"  x="176" y="184" width="8" height="8" fill="black" />
<rect shape-rendering="optimizeSpeed"  x="0" y="192" width="8" height="8" fill="black" />
<rect shape-rendering="optimizeSpeed"  x="8" y="192" width="8" height="8" fill="black" />
<rect shape-rendering="optimizeSpeed"  x="16" y="192" width="8" height="8" fill="black" />
<rect shape-rendering="optimizeSpeed"  x="24" y="192" width="8" height="8" fill="black" />
<rect shape-rendering="optimizeSpeed"  x="32" y="192" width="8" height="8" fill="black" />
<rect shape-rendering="optimizeSpeed"  x="40" y="192" width="8" height="8" fill="black" />
<rect shape-rendering="optimizeSpeed"  x="48" y="192" width="8" height="8" fill="black" />
<rect shape-rendering="optimizeSpeed"  x="64" y="192" width="8" height="8" fill="black" />
<rect shape-rendering="optimizeSpeed"  x="80" y="192" width="8" height="8" fill="black" />
<rect shape-rendering="optimizeSpeed"  x="96" y="192" width="8" height="8" fill="black" />
<rect shape-rendering="optimizeSpeed"  x="104" y="192" width="8" height="8" fill="black" />
<rect shape-rendering="optimizeSpeed"  x="112" y="192" width="8" height="8" fill="black" />
<rect shape-rendering="optimizeSpeed"  x="136" y="192" width="8" height="8" fill="black" />
<rect shape-rendering="optimizeSpeed"  x="144" y="192" width="8" height="8" fill="black" />
<rect shape-rendering="optimizeSpeed"  x="152" y="192" width="8" height="8" fill="black" />
<rect shape-rendering="optimizeSpeed"  x="160" y="192" width="8" height="8" fill="black" />
<rect shape-rendering="optimizeSpeed"  x="168" y="192" width="8" height="8" fill="black" />
<rect shape-rendering="optimizeSpeed"  x="176" y="192" width="8" height="8" fill="black" />
<rect shape-rendering="optimizeSpeed"  x="184" y="192" width="8" height="8" fill="black" />
<rect shape-rendering="optimizeSpeed"  x="192" y="192" width="8" height="8" fill="black" /></svg>